<svg xmlns="http://www.w3.org/2000/svg" xmlns:xlink="http://www.w3.org/1999/xlink" width="500" zoomAndPan="magnify" viewBox="0 0 375 129.000003" height="172" preserveAspectRatio="xMidYMid meet" version="1.0"><defs><g/></defs><g fill="#ffffff" fill-opacity="1"><g transform="translate(43.495145, 70.586793)"><g><path d="M 57.53125 -0.796875 L 58.171875 -0.796875 L 58.171875 0 L 40.09375 0 L 40.09375 -0.796875 L 40.828125 -0.796875 C 41.953125 -0.796875 42.796875 -1.15625 43.359375 -1.875 C 43.921875 -2.601562 44.203125 -3.289062 44.203125 -3.9375 C 44.203125 -4.582031 44.09375 -5.222656 43.875 -5.859375 L 38.734375 -19.53125 L 17.03125 -19.53125 L 11.65625 -5.78125 C 11.4375 -5.144531 11.328125 -4.515625 11.328125 -3.890625 C 11.328125 -3.273438 11.609375 -2.601562 12.171875 -1.875 C 12.734375 -1.15625 13.578125 -0.796875 14.703125 -0.796875 L 15.421875 -0.796875 L 15.421875 0 L -0.71875 0 L -0.71875 -0.796875 L 0 -0.796875 C 1.332031 -0.796875 2.640625 -1.222656 3.921875 -2.078125 C 5.210938 -2.941406 6.257812 -4.203125 7.0625 -5.859375 L 25.234375 -49.09375 C 27.210938 -53.4375 28.203125 -56.195312 28.203125 -57.375 L 28.921875 -57.375 L 50.46875 -5.859375 C 51.21875 -4.203125 52.234375 -2.941406 53.515625 -2.078125 C 54.804688 -1.222656 56.144531 -0.796875 57.53125 -0.796875 Z M 18 -21.9375 L 37.765625 -21.9375 L 28.125 -47.734375 Z M 18 -21.9375 "/></g></g></g><g fill="#ffffff" fill-opacity="1"><g transform="translate(113.557003, 70.586793)"><g><path d="M 47.328125 -49.09375 C 47.328125 -50.382812 46.867188 -51.5 45.953125 -52.4375 C 45.046875 -53.375 43.976562 -53.867188 42.75 -53.921875 L 27.484375 -53.921875 L 27.484375 -5.78125 C 27.535156 -4.394531 28.054688 -3.21875 29.046875 -2.25 C 30.035156 -1.28125 31.226562 -0.796875 32.625 -0.796875 L 33.671875 -0.796875 L 33.671875 0 L 16.078125 0 L 16.078125 -0.796875 L 17.109375 -0.796875 C 18.503906 -0.796875 19.695312 -1.28125 20.6875 -2.25 C 21.675781 -3.21875 22.203125 -4.367188 22.265625 -5.703125 L 22.265625 -53.921875 L 6.984375 -53.921875 C 5.703125 -53.867188 4.617188 -53.375 3.734375 -52.4375 C 2.847656 -51.5 2.40625 -50.382812 2.40625 -49.09375 L 2.40625 -47.734375 L 1.609375 -47.65625 L 1.609375 -57.78125 C 2.410156 -57.457031 3.800781 -57.132812 5.78125 -56.8125 C 7.769531 -56.488281 9.59375 -56.328125 11.25 -56.328125 L 38.40625 -56.328125 C 41.03125 -56.328125 43.210938 -56.523438 44.953125 -56.921875 C 46.703125 -57.328125 47.765625 -57.613281 48.140625 -57.78125 L 48.140625 -47.65625 L 47.328125 -47.734375 Z M 47.328125 -49.09375 "/></g></g></g><g fill="#ffffff" fill-opacity="1"><g transform="translate(176.066659, 70.586793)"><g><path d="M 5.859375 -0.796875 C 7.253906 -0.796875 8.445312 -1.289062 9.4375 -2.28125 C 10.425781 -3.28125 10.953125 -4.472656 11.015625 -5.859375 L 11.015625 -50.46875 C 10.953125 -51.863281 10.425781 -53.039062 9.4375 -54 C 8.445312 -54.96875 7.253906 -55.453125 5.859375 -55.453125 L 4.828125 -55.453125 L 4.828125 -56.25 L 22.421875 -56.25 L 22.421875 -55.453125 L 21.375 -55.453125 C 19.976562 -55.453125 18.785156 -54.96875 17.796875 -54 C 16.804688 -53.039062 16.285156 -51.863281 16.234375 -50.46875 L 16.234375 -5.859375 C 16.234375 -4.472656 16.738281 -3.28125 17.75 -2.28125 C 18.769531 -1.289062 19.976562 -0.796875 21.375 -0.796875 L 22.421875 -0.796875 L 22.421875 0 L 4.828125 0 L 4.828125 -0.796875 Z M 5.859375 -0.796875 "/></g></g></g><g fill="#ffffff" fill-opacity="1"><g transform="translate(216.080419, 70.586793)"><g><path d="M 5.859375 -0.796875 C 7.253906 -0.796875 8.445312 -1.289062 9.4375 -2.28125 C 10.425781 -3.28125 10.953125 -4.472656 11.015625 -5.859375 L 11.015625 -50.390625 C 10.953125 -51.773438 10.425781 -52.960938 9.4375 -53.953125 C 8.445312 -54.953125 7.253906 -55.453125 5.859375 -55.453125 L 4.828125 -55.453125 L 4.828125 -56.25 L 22.421875 -56.25 L 22.421875 -55.453125 L 21.375 -55.453125 C 19.445312 -55.453125 17.972656 -54.617188 16.953125 -52.953125 C 16.472656 -52.148438 16.234375 -51.296875 16.234375 -50.390625 L 16.234375 -2.484375 L 27.71875 -2.484375 C 31.6875 -2.484375 34.710938 -3.367188 36.796875 -5.140625 C 38.890625 -6.910156 40.632812 -9.535156 42.03125 -13.015625 L 42.828125 -13.015625 L 38.171875 0 L 4.828125 0 L 4.828125 -0.796875 Z M 5.859375 -0.796875 "/></g></g></g><g fill="#ffffff" fill-opacity="1"><g transform="translate(274.090899, 70.586793)"><g><path d="M 57.53125 -0.796875 L 58.171875 -0.796875 L 58.171875 0 L 40.09375 0 L 40.09375 -0.796875 L 40.828125 -0.796875 C 41.953125 -0.796875 42.796875 -1.15625 43.359375 -1.875 C 43.921875 -2.601562 44.203125 -3.289062 44.203125 -3.9375 C 44.203125 -4.582031 44.09375 -5.222656 43.875 -5.859375 L 38.734375 -19.53125 L 17.03125 -19.53125 L 11.65625 -5.78125 C 11.4375 -5.144531 11.328125 -4.515625 11.328125 -3.890625 C 11.328125 -3.273438 11.609375 -2.601562 12.171875 -1.875 C 12.734375 -1.15625 13.578125 -0.796875 14.703125 -0.796875 L 15.421875 -0.796875 L 15.421875 0 L -0.71875 0 L -0.71875 -0.796875 L 0 -0.796875 C 1.332031 -0.796875 2.640625 -1.222656 3.921875 -2.078125 C 5.210938 -2.941406 6.257812 -4.203125 7.0625 -5.859375 L 25.234375 -49.09375 C 27.210938 -53.4375 28.203125 -56.195312 28.203125 -57.375 L 28.921875 -57.375 L 50.46875 -5.859375 C 51.21875 -4.203125 52.234375 -2.941406 53.515625 -2.078125 C 54.804688 -1.222656 56.144531 -0.796875 57.53125 -0.796875 Z M 18 -21.9375 L 37.765625 -21.9375 L 28.125 -47.734375 Z M 18 -21.9375 "/></g></g></g><g fill="#e1ca6a" fill-opacity="1"><g transform="translate(44.833099, 100.261367)"><g><path d="M 11.046875 -0.203125 C 11.398438 -0.203125 11.703125 -0.320312 11.953125 -0.5625 C 12.203125 -0.800781 12.332031 -1.097656 12.34375 -1.453125 L 12.34375 -6.6875 L 4.078125 -6.6875 L 4.078125 -1.46875 C 4.078125 -1.125 4.203125 -0.828125 4.453125 -0.578125 C 4.710938 -0.328125 5.019531 -0.203125 5.375 -0.203125 L 5.640625 -0.203125 L 5.640625 0 L 1.21875 0 L 1.21875 -0.203125 L 1.46875 -0.203125 C 1.820312 -0.203125 2.125 -0.328125 2.375 -0.578125 C 2.625 -0.828125 2.753906 -1.125 2.765625 -1.46875 L 2.765625 -12.6875 C 2.753906 -13.039062 2.625 -13.335938 2.375 -13.578125 C 2.125 -13.816406 1.820312 -13.9375 1.46875 -13.9375 L 1.21875 -13.9375 L 1.21875 -14.140625 L 5.640625 -14.140625 L 5.640625 -13.9375 L 5.375 -13.9375 C 5.019531 -13.9375 4.71875 -13.816406 4.46875 -13.578125 C 4.21875 -13.335938 4.085938 -13.039062 4.078125 -12.6875 L 4.078125 -7.296875 L 12.34375 -7.296875 L 12.34375 -12.6875 C 12.332031 -13.175781 12.117188 -13.539062 11.703125 -13.78125 C 11.492188 -13.882812 11.273438 -13.9375 11.046875 -13.9375 L 10.78125 -13.9375 L 10.78125 -14.140625 L 15.21875 -14.140625 L 15.21875 -13.9375 L 14.953125 -13.9375 C 14.597656 -13.9375 14.296875 -13.8125 14.046875 -13.5625 C 13.796875 -13.3125 13.664062 -13.015625 13.65625 -12.671875 L 13.65625 -1.46875 C 13.664062 -1.125 13.796875 -0.828125 14.046875 -0.578125 C 14.296875 -0.328125 14.597656 -0.203125 14.953125 -0.203125 L 15.21875 -0.203125 L 15.21875 0 L 10.78125 0 L 10.78125 -0.203125 Z M 11.046875 -0.203125 "/></g></g></g><g fill="#e1ca6a" fill-opacity="1"><g transform="translate(64.484877, 100.261367)"><g><path d="M 14.84375 -13.9375 L 14.53125 -13.9375 C 14.25 -13.9375 14 -13.84375 13.78125 -13.65625 C 13.570312 -13.476562 13.460938 -13.253906 13.453125 -12.984375 L 13.453125 -4.984375 C 13.453125 -3.410156 12.953125 -2.140625 11.953125 -1.171875 C 10.960938 -0.203125 9.640625 0.28125 7.984375 0.28125 C 6.328125 0.28125 4.984375 -0.195312 3.953125 -1.15625 C 2.921875 -2.125 2.40625 -3.394531 2.40625 -4.96875 L 2.40625 -12.9375 C 2.40625 -13.332031 2.226562 -13.625 1.875 -13.8125 C 1.71875 -13.894531 1.535156 -13.9375 1.328125 -13.9375 L 1.015625 -13.9375 L 1.015625 -14.140625 L 5.109375 -14.140625 L 5.109375 -13.9375 L 4.78125 -13.9375 C 4.488281 -13.9375 4.238281 -13.84375 4.03125 -13.65625 C 3.832031 -13.476562 3.726562 -13.25 3.71875 -12.96875 L 3.71875 -5.25 C 3.71875 -3.78125 4.109375 -2.59375 4.890625 -1.6875 C 5.679688 -0.789062 6.738281 -0.34375 8.0625 -0.34375 C 9.382812 -0.34375 10.453125 -0.769531 11.265625 -1.625 C 12.085938 -2.476562 12.5 -3.597656 12.5 -4.984375 L 12.5 -12.96875 C 12.488281 -13.25 12.378906 -13.476562 12.171875 -13.65625 C 11.972656 -13.84375 11.726562 -13.9375 11.4375 -13.9375 L 11.109375 -13.9375 L 11.109375 -14.140625 L 14.84375 -14.140625 Z M 14.84375 -13.9375 "/></g></g></g><g fill="#e1ca6a" fill-opacity="1"><g transform="translate(83.571207, 100.261367)"><g><path d="M 5.375 -0.203125 L 5.640625 -0.203125 L 5.640625 0 L 1.21875 0 L 1.21875 -0.203125 L 1.46875 -0.203125 C 1.820312 -0.203125 2.125 -0.328125 2.375 -0.578125 C 2.625 -0.828125 2.753906 -1.125 2.765625 -1.46875 L 2.765625 -12.6875 C 2.753906 -13.039062 2.625 -13.335938 2.375 -13.578125 C 2.125 -13.816406 1.820312 -13.9375 1.46875 -13.9375 L 1.21875 -13.9375 L 1.21875 -14.140625 L 5.640625 -14.140625 L 5.640625 -13.9375 L 5.375 -13.9375 C 5.019531 -13.9375 4.71875 -13.816406 4.46875 -13.578125 C 4.21875 -13.335938 4.085938 -13.039062 4.078125 -12.6875 L 4.078125 -1.46875 C 4.078125 -1.125 4.203125 -0.828125 4.453125 -0.578125 C 4.710938 -0.328125 5.019531 -0.203125 5.375 -0.203125 Z M 13.5 0 L 12.625 0 C 11.25 0 10.238281 -0.382812 9.59375 -1.15625 L 4.734375 -7.03125 L 9.5 -13.015625 C 9.601562 -13.148438 9.65625 -13.269531 9.65625 -13.375 C 9.65625 -13.476562 9.632812 -13.570312 9.59375 -13.65625 C 9.488281 -13.851562 9.296875 -13.953125 9.015625 -13.953125 L 8.8125 -13.953125 L 8.8125 -14.140625 L 13.078125 -14.140625 L 13.078125 -13.953125 L 12.984375 -13.953125 C 12.097656 -13.953125 11.375 -13.640625 10.8125 -13.015625 L 6.0625 -7.515625 L 11.578125 -1.03125 C 12.117188 -0.488281 12.757812 -0.210938 13.5 -0.203125 Z M 13.5 0 "/></g></g></g><g fill="#e1ca6a" fill-opacity="1"><g transform="translate(100.072632, 100.261367)"><g><path d="M 14.84375 -13.9375 L 14.53125 -13.9375 C 14.25 -13.9375 14 -13.84375 13.78125 -13.65625 C 13.570312 -13.476562 13.460938 -13.253906 13.453125 -12.984375 L 13.453125 -4.984375 C 13.453125 -3.410156 12.953125 -2.140625 11.953125 -1.171875 C 10.960938 -0.203125 9.640625 0.28125 7.984375 0.28125 C 6.328125 0.28125 4.984375 -0.195312 3.953125 -1.15625 C 2.921875 -2.125 2.40625 -3.394531 2.40625 -4.96875 L 2.40625 -12.9375 C 2.40625 -13.332031 2.226562 -13.625 1.875 -13.8125 C 1.71875 -13.894531 1.535156 -13.9375 1.328125 -13.9375 L 1.015625 -13.9375 L 1.015625 -14.140625 L 5.109375 -14.140625 L 5.109375 -13.9375 L 4.78125 -13.9375 C 4.488281 -13.9375 4.238281 -13.84375 4.03125 -13.65625 C 3.832031 -13.476562 3.726562 -13.25 3.71875 -12.96875 L 3.71875 -5.25 C 3.71875 -3.78125 4.109375 -2.59375 4.890625 -1.6875 C 5.679688 -0.789062 6.738281 -0.34375 8.0625 -0.34375 C 9.382812 -0.34375 10.453125 -0.769531 11.265625 -1.625 C 12.085938 -2.476562 12.5 -3.597656 12.5 -4.984375 L 12.5 -12.96875 C 12.488281 -13.25 12.378906 -13.476562 12.171875 -13.65625 C 11.972656 -13.84375 11.726562 -13.9375 11.4375 -13.9375 L 11.109375 -13.9375 L 11.109375 -14.140625 L 14.84375 -14.140625 Z M 14.84375 -13.9375 "/></g></g></g><g fill="#e1ca6a" fill-opacity="1"><g transform="translate(119.158961, 100.261367)"><g><path d="M 5.375 -0.203125 L 5.640625 -0.203125 L 5.640625 0 L 1.21875 0 L 1.21875 -0.203125 L 1.46875 -0.203125 C 1.820312 -0.203125 2.125 -0.328125 2.375 -0.578125 C 2.625 -0.828125 2.753906 -1.125 2.765625 -1.46875 L 2.765625 -12.6875 C 2.753906 -13.039062 2.625 -13.335938 2.375 -13.578125 C 2.125 -13.816406 1.820312 -13.9375 1.46875 -13.9375 L 1.21875 -13.9375 L 1.21875 -14.140625 L 5.640625 -14.140625 L 5.640625 -13.9375 L 5.375 -13.9375 C 5.019531 -13.9375 4.71875 -13.816406 4.46875 -13.578125 C 4.21875 -13.335938 4.085938 -13.039062 4.078125 -12.6875 L 4.078125 -1.46875 C 4.078125 -1.125 4.203125 -0.828125 4.453125 -0.578125 C 4.710938 -0.328125 5.019531 -0.203125 5.375 -0.203125 Z M 13.5 0 L 12.625 0 C 11.25 0 10.238281 -0.382812 9.59375 -1.15625 L 4.734375 -7.03125 L 9.5 -13.015625 C 9.601562 -13.148438 9.65625 -13.269531 9.65625 -13.375 C 9.65625 -13.476562 9.632812 -13.570312 9.59375 -13.65625 C 9.488281 -13.851562 9.296875 -13.953125 9.015625 -13.953125 L 8.8125 -13.953125 L 8.8125 -14.140625 L 13.078125 -14.140625 L 13.078125 -13.953125 L 12.984375 -13.953125 C 12.097656 -13.953125 11.375 -13.640625 10.8125 -13.015625 L 6.0625 -7.515625 L 11.578125 -1.03125 C 12.117188 -0.488281 12.757812 -0.210938 13.5 -0.203125 Z M 13.5 0 "/></g></g></g><g fill="#e1ca6a" fill-opacity="1"><g transform="translate(135.660382, 100.261367)"><g><path d="M 12.671875 -7.578125 C 12.390625 -7.578125 12.191406 -7.503906 12.078125 -7.359375 C 11.960938 -7.222656 11.90625 -7.085938 11.90625 -6.953125 C 11.90625 -6.828125 11.929688 -6.613281 11.984375 -6.3125 C 12.046875 -6.019531 12.078125 -5.632812 12.078125 -5.15625 C 12.078125 -4.09375 11.828125 -3.125 11.328125 -2.25 C 11.816406 -1.820312 12.203125 -1.5 12.484375 -1.28125 C 12.765625 -1.0625 13.132812 -0.832031 13.59375 -0.59375 C 14.050781 -0.363281 14.476562 -0.234375 14.875 -0.203125 L 14.875 0 C 14.851562 0 14.738281 0 14.53125 0 C 14.320312 0 14.171875 0 14.078125 0 C 13.992188 0 13.832031 -0.00390625 13.59375 -0.015625 C 13.363281 -0.0351562 13.175781 -0.0625 13.03125 -0.09375 C 12.882812 -0.125 12.6875 -0.164062 12.4375 -0.21875 C 12.195312 -0.269531 11.984375 -0.34375 11.796875 -0.4375 C 11.316406 -0.65625 10.894531 -0.90625 10.53125 -1.1875 C 9.570312 -0.257812 8.320312 0.203125 6.78125 0.203125 C 4.820312 0.203125 3.300781 -0.207031 2.21875 -1.03125 C 1.144531 -1.851562 0.609375 -3.019531 0.609375 -4.53125 C 0.609375 -6.195312 1.421875 -7.441406 3.046875 -8.265625 C 2.535156 -9.085938 2.28125 -9.988281 2.28125 -10.96875 C 2.28125 -11.96875 2.644531 -12.789062 3.375 -13.4375 C 4.125 -14.09375 5.113281 -14.421875 6.34375 -14.421875 C 7.03125 -14.421875 7.679688 -14.289062 8.296875 -14.03125 C 8.921875 -13.769531 9.414062 -13.421875 9.78125 -12.984375 L 9.421875 -10.703125 L 9.21875 -10.703125 C 9.21875 -11.671875 8.953125 -12.429688 8.421875 -12.984375 C 7.898438 -13.535156 7.226562 -13.8125 6.40625 -13.8125 C 5.59375 -13.8125 4.929688 -13.539062 4.421875 -13 C 3.921875 -12.46875 3.671875 -11.796875 3.671875 -10.984375 C 3.671875 -10.179688 3.921875 -9.421875 4.421875 -8.703125 C 4.921875 -7.992188 5.894531 -6.988281 7.34375 -5.6875 C 8.800781 -4.394531 9.867188 -3.46875 10.546875 -2.90625 C 10.828125 -3.53125 10.96875 -4.171875 10.96875 -4.828125 C 10.96875 -5.484375 10.820312 -6.101562 10.53125 -6.6875 C 10.238281 -7.28125 9.8125 -7.578125 9.25 -7.578125 L 8.953125 -7.578125 L 8.953125 -7.78125 L 12.96875 -7.78125 L 12.96875 -7.578125 Z M 9.84375 -1.78125 C 6.394531 -4.625 4.238281 -6.625 3.375 -7.78125 C 2.507812 -6.96875 2.078125 -5.910156 2.078125 -4.609375 C 2.078125 -3.316406 2.488281 -2.289062 3.3125 -1.53125 C 4.144531 -0.78125 5.300781 -0.40625 6.78125 -0.40625 C 8.019531 -0.40625 9.039062 -0.863281 9.84375 -1.78125 Z M 9.84375 -1.78125 "/></g></g></g><g fill="#e1ca6a" fill-opacity="1"><g transform="translate(151.939663, 100.261367)"><g><path d="M 8.0625 -14.140625 C 10.21875 -14.140625 11.960938 -13.488281 13.296875 -12.1875 C 14.640625 -10.894531 15.3125 -9.191406 15.3125 -7.078125 C 15.3125 -4.960938 14.640625 -3.253906 13.296875 -1.953125 C 11.960938 -0.648438 10.21875 0 8.0625 0 L 1.21875 0 L 1.21875 -0.203125 L 1.46875 -0.203125 C 1.820312 -0.203125 2.125 -0.328125 2.375 -0.578125 C 2.625 -0.828125 2.753906 -1.125 2.765625 -1.46875 L 2.765625 -12.78125 C 2.765625 -13.113281 2.632812 -13.390625 2.375 -13.609375 C 2.113281 -13.828125 1.8125 -13.9375 1.46875 -13.9375 L 1.234375 -13.9375 L 1.21875 -14.140625 Z M 4.078125 -13.53125 L 4.078125 -0.609375 L 8.0625 -0.609375 C 9.195312 -0.609375 10.195312 -0.875 11.0625 -1.40625 C 11.925781 -1.945312 12.597656 -2.707031 13.078125 -3.6875 C 13.554688 -4.664062 13.796875 -5.796875 13.796875 -7.078125 C 13.796875 -9.015625 13.265625 -10.570312 12.203125 -11.75 C 11.148438 -12.9375 9.769531 -13.53125 8.0625 -13.53125 Z M 4.078125 -13.53125 "/></g></g></g><g fill="#e1ca6a" fill-opacity="1"><g transform="translate(171.470281, 100.261367)"><g><path d="M 14.453125 -0.203125 L 14.625 -0.203125 L 14.625 0 L 10.078125 0 L 10.078125 -0.203125 L 10.265625 -0.203125 C 10.546875 -0.203125 10.753906 -0.289062 10.890625 -0.46875 C 11.035156 -0.65625 11.109375 -0.828125 11.109375 -0.984375 C 11.109375 -1.148438 11.082031 -1.3125 11.03125 -1.46875 L 9.734375 -4.90625 L 4.28125 -4.90625 L 2.921875 -1.453125 C 2.867188 -1.296875 2.84375 -1.140625 2.84375 -0.984375 C 2.84375 -0.828125 2.910156 -0.65625 3.046875 -0.46875 C 3.191406 -0.289062 3.40625 -0.203125 3.6875 -0.203125 L 3.875 -0.203125 L 3.875 0 L -0.1875 0 L -0.1875 -0.203125 L 0 -0.203125 C 0.332031 -0.203125 0.660156 -0.304688 0.984375 -0.515625 C 1.304688 -0.734375 1.566406 -1.050781 1.765625 -1.46875 L 6.34375 -12.34375 C 6.84375 -13.4375 7.09375 -14.128906 7.09375 -14.421875 L 7.265625 -14.421875 L 12.6875 -1.46875 C 12.875 -1.050781 13.128906 -0.734375 13.453125 -0.515625 C 13.773438 -0.304688 14.109375 -0.203125 14.453125 -0.203125 Z M 4.515625 -5.515625 L 9.484375 -5.515625 L 7.0625 -12 Z M 4.515625 -5.515625 "/></g></g></g><g fill="#e1ca6a" fill-opacity="1"><g transform="translate(189.082409, 100.261367)"><g><path d="M 15.71875 -13.9375 C 15.382812 -13.9375 15.09375 -13.816406 14.84375 -13.578125 C 14.601562 -13.347656 14.476562 -13.066406 14.46875 -12.734375 L 14.46875 -2.296875 C 14.46875 -1.515625 14.515625 -0.773438 14.609375 -0.078125 L 14.640625 0.28125 L 14.46875 0.28125 L 3.453125 -11.46875 L 3.453125 -1.421875 C 3.460938 -0.941406 3.671875 -0.585938 4.078125 -0.359375 C 4.265625 -0.253906 4.46875 -0.203125 4.6875 -0.203125 L 5.078125 -0.203125 L 5.078125 0 L 0.90625 0 L 0.90625 -0.203125 L 1.296875 -0.203125 C 1.628906 -0.203125 1.914062 -0.316406 2.15625 -0.546875 C 2.40625 -0.785156 2.53125 -1.082031 2.53125 -1.4375 L 2.53125 -11.921875 C 2.53125 -12.742188 2.484375 -13.476562 2.390625 -14.125 L 2.34375 -14.4375 L 2.546875 -14.4375 L 13.5625 -2.6875 L 13.5625 -12.703125 C 13.539062 -13.054688 13.410156 -13.347656 13.171875 -13.578125 C 12.929688 -13.816406 12.640625 -13.9375 12.296875 -13.9375 L 11.921875 -13.9375 L 11.921875 -14.140625 L 16.078125 -14.140625 L 16.078125 -13.9375 Z M 15.71875 -13.9375 "/></g></g></g><g fill="#e1ca6a" fill-opacity="1"><g transform="translate(209.299632, 100.261367)"><g><path d="M 1.46875 -0.203125 C 1.820312 -0.203125 2.125 -0.328125 2.375 -0.578125 C 2.625 -0.828125 2.753906 -1.125 2.765625 -1.46875 L 2.765625 -12.6875 C 2.753906 -13.039062 2.625 -13.335938 2.375 -13.578125 C 2.125 -13.816406 1.820312 -13.9375 1.46875 -13.9375 L 1.21875 -13.9375 L 1.21875 -14.140625 L 5.640625 -14.140625 L 5.640625 -13.9375 L 5.375 -13.9375 C 5.019531 -13.9375 4.71875 -13.816406 4.46875 -13.578125 C 4.21875 -13.335938 4.085938 -13.039062 4.078125 -12.6875 L 4.078125 -1.46875 C 4.078125 -1.125 4.203125 -0.828125 4.453125 -0.578125 C 4.710938 -0.328125 5.019531 -0.203125 5.375 -0.203125 L 5.640625 -0.203125 L 5.640625 0 L 1.21875 0 L 1.21875 -0.203125 Z M 1.46875 -0.203125 "/></g></g></g><g fill="#e1ca6a" fill-opacity="1"><g transform="translate(219.358976, 100.261367)"><g><path d="M 1.234375 -0.828125 C 1.191406 -1.015625 1.171875 -1.378906 1.171875 -1.921875 C 1.171875 -2.460938 1.269531 -3.035156 1.46875 -3.640625 L 1.65625 -3.640625 C 1.644531 -3.492188 1.640625 -3.34375 1.640625 -3.1875 C 1.640625 -2.363281 1.882812 -1.679688 2.375 -1.140625 C 2.875 -0.597656 3.535156 -0.328125 4.359375 -0.328125 C 5.210938 -0.328125 5.910156 -0.582031 6.453125 -1.09375 C 6.992188 -1.601562 7.265625 -2.242188 7.265625 -3.015625 C 7.265625 -3.796875 7.003906 -4.425781 6.484375 -4.90625 L 2.609375 -8.5 C 1.878906 -9.175781 1.515625 -9.992188 1.515625 -10.953125 C 1.515625 -11.910156 1.832031 -12.726562 2.46875 -13.40625 C 3.113281 -14.082031 3.984375 -14.421875 5.078125 -14.421875 C 5.585938 -14.421875 6.164062 -14.351562 6.8125 -14.21875 L 7.59375 -14.21875 L 7.59375 -11.734375 L 7.421875 -11.734375 C 7.421875 -12.367188 7.195312 -12.875 6.75 -13.25 C 6.3125 -13.625 5.75 -13.8125 5.0625 -13.8125 C 4.382812 -13.8125 3.8125 -13.582031 3.34375 -13.125 C 2.875 -12.664062 2.640625 -12.09375 2.640625 -11.40625 C 2.640625 -10.726562 2.910156 -10.140625 3.453125 -9.640625 L 7.4375 -5.953125 C 8.101562 -5.335938 8.4375 -4.507812 8.4375 -3.46875 C 8.4375 -2.4375 8.132812 -1.578125 7.53125 -0.890625 C 6.9375 -0.210938 6.128906 0.171875 5.109375 0.265625 L 4.28125 1.21875 C 4.5 1.132812 4.722656 1.09375 4.953125 1.09375 C 5.515625 1.09375 5.894531 1.226562 6.09375 1.5 C 6.300781 1.78125 6.40625 2.09375 6.40625 2.4375 C 6.40625 3.03125 6.109375 3.46875 5.515625 3.75 C 5.160156 3.914062 4.816406 4 4.484375 4 C 4.160156 4 3.851562 3.953125 3.5625 3.859375 L 3.578125 3.65625 C 4.054688 3.65625 4.476562 3.550781 4.84375 3.34375 C 5.207031 3.144531 5.390625 2.835938 5.390625 2.421875 C 5.390625 1.828125 5.046875 1.53125 4.359375 1.53125 C 4.128906 1.53125 3.910156 1.585938 3.703125 1.703125 L 3.59375 1.5 L 4.546875 0.28125 C 3.953125 0.269531 3.335938 0.175781 2.703125 0 C 2.066406 -0.1875 1.578125 -0.460938 1.234375 -0.828125 Z M 1.234375 -0.828125 "/></g></g></g><g fill="#e1ca6a" fill-opacity="1"><g transform="translate(232.184989, 100.261367)"><g><path d="M 18.1875 -0.203125 L 18.5 -0.203125 L 18.5 0 L 14.125 0 L 14.125 -0.1875 L 14.421875 -0.1875 C 14.648438 -0.1875 14.84375 -0.273438 15 -0.453125 C 15.164062 -0.640625 15.238281 -0.835938 15.21875 -1.046875 L 14.296875 -11.21875 L 10.0625 -1.78125 C 9.6875 -0.957031 9.457031 -0.269531 9.375 0.28125 L 9.171875 0.28125 L 4 -10.9375 L 3.125 -1.046875 C 3.101562 -0.835938 3.171875 -0.640625 3.328125 -0.453125 C 3.492188 -0.273438 3.6875 -0.1875 3.90625 -0.1875 L 4.21875 -0.1875 L 4.21875 0 L 0.296875 0 L 0.296875 -0.203125 L 0.625 -0.203125 C 1 -0.203125 1.320312 -0.316406 1.59375 -0.546875 C 1.875 -0.773438 2.039062 -1.082031 2.09375 -1.46875 L 3.609375 -14.421875 L 3.8125 -14.421875 L 9.453125 -2.25 L 14.96875 -14.421875 L 15.15625 -14.421875 L 16.703125 -1.46875 C 16.773438 -0.9375 17.046875 -0.5625 17.515625 -0.34375 C 17.710938 -0.25 17.9375 -0.203125 18.1875 -0.203125 Z M 18.1875 -0.203125 "/></g></g></g><g fill="#e1ca6a" fill-opacity="1"><g transform="translate(254.219735, 100.261367)"><g><path d="M 14.453125 -0.203125 L 14.625 -0.203125 L 14.625 0 L 10.078125 0 L 10.078125 -0.203125 L 10.265625 -0.203125 C 10.546875 -0.203125 10.753906 -0.289062 10.890625 -0.46875 C 11.035156 -0.65625 11.109375 -0.828125 11.109375 -0.984375 C 11.109375 -1.148438 11.082031 -1.3125 11.03125 -1.46875 L 9.734375 -4.90625 L 4.28125 -4.90625 L 2.921875 -1.453125 C 2.867188 -1.296875 2.84375 -1.140625 2.84375 -0.984375 C 2.84375 -0.828125 2.910156 -0.65625 3.046875 -0.46875 C 3.191406 -0.289062 3.40625 -0.203125 3.6875 -0.203125 L 3.875 -0.203125 L 3.875 0 L -0.1875 0 L -0.1875 -0.203125 L 0 -0.203125 C 0.332031 -0.203125 0.660156 -0.304688 0.984375 -0.515625 C 1.304688 -0.734375 1.566406 -1.050781 1.765625 -1.46875 L 6.34375 -12.34375 C 6.84375 -13.4375 7.09375 -14.128906 7.09375 -14.421875 L 7.265625 -14.421875 L 12.6875 -1.46875 C 12.875 -1.050781 13.128906 -0.734375 13.453125 -0.515625 C 13.773438 -0.304688 14.109375 -0.203125 14.453125 -0.203125 Z M 4.515625 -5.515625 L 9.484375 -5.515625 L 7.0625 -12 Z M 4.515625 -5.515625 "/></g></g></g><g fill="#e1ca6a" fill-opacity="1"><g transform="translate(271.831862, 100.261367)"><g><path d="M 15.71875 -13.9375 C 15.382812 -13.9375 15.09375 -13.816406 14.84375 -13.578125 C 14.601562 -13.347656 14.476562 -13.066406 14.46875 -12.734375 L 14.46875 -2.296875 C 14.46875 -1.515625 14.515625 -0.773438 14.609375 -0.078125 L 14.640625 0.28125 L 14.46875 0.28125 L 3.453125 -11.46875 L 3.453125 -1.421875 C 3.460938 -0.941406 3.671875 -0.585938 4.078125 -0.359375 C 4.265625 -0.253906 4.46875 -0.203125 4.6875 -0.203125 L 5.078125 -0.203125 L 5.078125 0 L 0.90625 0 L 0.90625 -0.203125 L 1.296875 -0.203125 C 1.628906 -0.203125 1.914062 -0.316406 2.15625 -0.546875 C 2.40625 -0.785156 2.53125 -1.082031 2.53125 -1.4375 L 2.53125 -11.921875 C 2.53125 -12.742188 2.484375 -13.476562 2.390625 -14.125 L 2.34375 -14.4375 L 2.546875 -14.4375 L 13.5625 -2.6875 L 13.5625 -12.703125 C 13.539062 -13.054688 13.410156 -13.347656 13.171875 -13.578125 C 12.929688 -13.816406 12.640625 -13.9375 12.296875 -13.9375 L 11.921875 -13.9375 L 11.921875 -14.140625 L 16.078125 -14.140625 L 16.078125 -13.9375 Z M 15.71875 -13.9375 "/></g></g></g><g fill="#e1ca6a" fill-opacity="1"><g transform="translate(292.049086, 100.261367)"><g><path d="M 1.46875 -0.203125 C 1.820312 -0.203125 2.125 -0.328125 2.375 -0.578125 C 2.625 -0.828125 2.753906 -1.125 2.765625 -1.46875 L 2.765625 -12.671875 C 2.753906 -13.015625 2.625 -13.3125 2.375 -13.5625 C 2.125 -13.8125 1.820312 -13.9375 1.46875 -13.9375 L 1.21875 -13.9375 L 1.21875 -14.140625 L 5.640625 -14.140625 L 5.640625 -13.9375 L 5.375 -13.9375 C 4.882812 -13.9375 4.515625 -13.726562 4.265625 -13.3125 C 4.140625 -13.113281 4.078125 -12.898438 4.078125 -12.671875 L 4.078125 -0.625 L 6.96875 -0.625 C 7.96875 -0.625 8.726562 -0.84375 9.25 -1.28125 C 9.78125 -1.726562 10.21875 -2.390625 10.5625 -3.265625 L 10.765625 -3.265625 L 9.59375 0 L 1.21875 0 L 1.21875 -0.203125 Z M 1.46875 -0.203125 "/></g></g></g><g fill="#e1ca6a" fill-opacity="1"><g transform="translate(306.632024, 100.261367)"><g><path d="M 1.46875 -0.203125 C 1.820312 -0.203125 2.125 -0.328125 2.375 -0.578125 C 2.625 -0.828125 2.753906 -1.125 2.765625 -1.46875 L 2.765625 -12.6875 C 2.753906 -13.039062 2.625 -13.335938 2.375 -13.578125 C 2.125 -13.816406 1.820312 -13.9375 1.46875 -13.9375 L 1.21875 -13.9375 L 1.21875 -14.140625 L 5.640625 -14.140625 L 5.640625 -13.9375 L 5.375 -13.9375 C 5.019531 -13.9375 4.71875 -13.816406 4.46875 -13.578125 C 4.21875 -13.335938 4.085938 -13.039062 4.078125 -12.6875 L 4.078125 -1.46875 C 4.078125 -1.125 4.203125 -0.828125 4.453125 -0.578125 C 4.710938 -0.328125 5.019531 -0.203125 5.375 -0.203125 L 5.640625 -0.203125 L 5.640625 0 L 1.21875 0 L 1.21875 -0.203125 Z M 1.46875 -0.203125 "/></g></g></g><g fill="#e1ca6a" fill-opacity="1"><g transform="translate(316.691382, 100.261367)"><g><path d="M 5.375 -0.203125 L 5.640625 -0.203125 L 5.640625 0 L 1.21875 0 L 1.21875 -0.203125 L 1.46875 -0.203125 C 1.820312 -0.203125 2.125 -0.328125 2.375 -0.578125 C 2.625 -0.828125 2.753906 -1.125 2.765625 -1.46875 L 2.765625 -12.6875 C 2.753906 -13.039062 2.625 -13.335938 2.375 -13.578125 C 2.125 -13.816406 1.820312 -13.9375 1.46875 -13.9375 L 1.21875 -13.9375 L 1.21875 -14.140625 L 5.640625 -14.140625 L 5.640625 -13.9375 L 5.375 -13.9375 C 5.019531 -13.9375 4.71875 -13.816406 4.46875 -13.578125 C 4.21875 -13.335938 4.085938 -13.039062 4.078125 -12.6875 L 4.078125 -1.46875 C 4.078125 -1.125 4.203125 -0.828125 4.453125 -0.578125 C 4.710938 -0.328125 5.019531 -0.203125 5.375 -0.203125 Z M 13.5 0 L 12.625 0 C 11.25 0 10.238281 -0.382812 9.59375 -1.15625 L 4.734375 -7.03125 L 9.5 -13.015625 C 9.601562 -13.148438 9.65625 -13.269531 9.65625 -13.375 C 9.65625 -13.476562 9.632812 -13.570312 9.59375 -13.65625 C 9.488281 -13.851562 9.296875 -13.953125 9.015625 -13.953125 L 8.8125 -13.953125 L 8.8125 -14.140625 L 13.078125 -14.140625 L 13.078125 -13.953125 L 12.984375 -13.953125 C 12.097656 -13.953125 11.375 -13.640625 10.8125 -13.015625 L 6.0625 -7.515625 L 11.578125 -1.03125 C 12.117188 -0.488281 12.757812 -0.210938 13.5 -0.203125 Z M 13.5 0 "/></g></g></g><g fill="#e1ca6a" fill-opacity="1"><g transform="translate(73.337995, 122.123559)"><g><path d="M 1.28125 -0.171875 C 1.582031 -0.171875 1.84375 -0.28125 2.0625 -0.5 C 2.28125 -0.71875 2.394531 -0.976562 2.40625 -1.28125 L 2.40625 -11.015625 C 2.394531 -11.316406 2.28125 -11.578125 2.0625 -11.796875 C 1.84375 -12.015625 1.582031 -12.125 1.28125 -12.125 L 1.046875 -12.125 L 1.046875 -12.296875 L 4.90625 -12.296875 L 4.90625 -12.125 L 4.671875 -12.125 C 4.253906 -12.125 3.929688 -11.941406 3.703125 -11.578125 C 3.597656 -11.398438 3.546875 -11.210938 3.546875 -11.015625 L 3.546875 -0.546875 L 6.0625 -0.546875 C 6.925781 -0.546875 7.585938 -0.738281 8.046875 -1.125 C 8.503906 -1.507812 8.882812 -2.082031 9.1875 -2.84375 L 9.359375 -2.84375 L 8.34375 0 L 1.046875 0 L 1.046875 -0.171875 Z M 1.28125 -0.171875 "/></g></g></g><g fill="#e1ca6a" fill-opacity="1"><g transform="translate(86.019776, 122.123559)"><g><path d="M 12.578125 -0.171875 L 12.71875 -0.171875 L 12.71875 0 L 8.765625 0 L 8.765625 -0.171875 L 8.921875 -0.171875 C 9.160156 -0.171875 9.34375 -0.25 9.46875 -0.40625 C 9.59375 -0.570312 9.65625 -0.722656 9.65625 -0.859375 C 9.65625 -1.003906 9.632812 -1.144531 9.59375 -1.28125 L 8.46875 -4.265625 L 3.71875 -4.265625 L 2.546875 -1.265625 C 2.492188 -1.117188 2.46875 -0.976562 2.46875 -0.84375 C 2.46875 -0.71875 2.53125 -0.570312 2.65625 -0.40625 C 2.78125 -0.25 2.96875 -0.171875 3.21875 -0.171875 L 3.375 -0.171875 L 3.375 0 L -0.15625 0 L -0.15625 -0.171875 L 0 -0.171875 C 0.289062 -0.171875 0.578125 -0.265625 0.859375 -0.453125 C 1.140625 -0.640625 1.367188 -0.914062 1.546875 -1.28125 L 5.515625 -10.734375 C 5.941406 -11.679688 6.15625 -12.285156 6.15625 -12.546875 L 6.328125 -12.546875 L 11.03125 -1.28125 C 11.1875 -0.914062 11.40625 -0.640625 11.6875 -0.453125 C 11.96875 -0.265625 12.265625 -0.171875 12.578125 -0.171875 Z M 3.9375 -4.796875 L 8.25 -4.796875 L 6.140625 -10.4375 Z M 3.9375 -4.796875 "/></g></g></g><g fill="#e1ca6a" fill-opacity="1"><g transform="translate(101.336283, 122.123559)"><g><path d="M 17.4375 -12.125 L 17.296875 -12.125 C 16.859375 -12.125 16.476562 -11.960938 16.15625 -11.640625 C 15.96875 -11.472656 15.832031 -11.269531 15.75 -11.03125 L 12.84375 -1.734375 C 12.601562 -0.992188 12.472656 -0.347656 12.453125 0.203125 L 12.296875 0.203125 L 8.703125 -9.828125 L 6.046875 -1.734375 C 5.816406 -1.015625 5.691406 -0.367188 5.671875 0.203125 L 5.515625 0.203125 L 1.53125 -11.046875 C 1.382812 -11.398438 1.164062 -11.664062 0.875 -11.84375 C 0.582031 -12.03125 0.285156 -12.125 -0.015625 -12.125 L -0.15625 -12.125 L -0.15625 -12.296875 L 3.734375 -12.296875 L 3.734375 -12.125 L 3.578125 -12.125 C 3.335938 -12.125 3.15625 -12.039062 3.03125 -11.875 C 2.90625 -11.71875 2.84375 -11.566406 2.84375 -11.421875 C 2.84375 -11.285156 2.859375 -11.160156 2.890625 -11.046875 L 5.5625 -2.5 L 8.828125 -12.578125 L 8.984375 -12.5625 L 12.453125 -2.84375 L 14.796875 -11.0625 C 14.835938 -11.1875 14.859375 -11.316406 14.859375 -11.453125 C 14.859375 -11.585938 14.796875 -11.734375 14.671875 -11.890625 C 14.554688 -12.046875 14.378906 -12.125 14.140625 -12.125 L 13.984375 -12.125 L 13.984375 -12.296875 L 17.4375 -12.296875 Z M 17.4375 -12.125 "/></g></g></g><g fill="#e1ca6a" fill-opacity="1"><g transform="translate(121.395278, 122.123559)"><g><path d="M 11.015625 -6.578125 C 10.765625 -6.578125 10.585938 -6.515625 10.484375 -6.390625 C 10.390625 -6.273438 10.34375 -6.160156 10.34375 -6.046875 C 10.34375 -5.941406 10.367188 -5.757812 10.421875 -5.5 C 10.472656 -5.238281 10.5 -4.898438 10.5 -4.484375 C 10.5 -3.554688 10.285156 -2.710938 9.859375 -1.953125 C 10.273438 -1.585938 10.601562 -1.304688 10.84375 -1.109375 C 11.09375 -0.921875 11.414062 -0.722656 11.8125 -0.515625 C 12.21875 -0.304688 12.585938 -0.191406 12.921875 -0.171875 L 12.921875 0 C 12.910156 0 12.8125 0 12.625 0 C 12.445312 0 12.320312 0 12.25 0 C 12.175781 0 12.035156 -0.00390625 11.828125 -0.015625 C 11.617188 -0.0234375 11.453125 -0.046875 11.328125 -0.078125 C 11.203125 -0.109375 11.03125 -0.144531 10.8125 -0.1875 C 10.601562 -0.238281 10.414062 -0.304688 10.25 -0.390625 C 9.832031 -0.578125 9.46875 -0.789062 9.15625 -1.03125 C 8.320312 -0.226562 7.238281 0.171875 5.90625 0.171875 C 4.195312 0.171875 2.875 -0.179688 1.9375 -0.890625 C 1 -1.609375 0.53125 -2.625 0.53125 -3.9375 C 0.53125 -5.382812 1.238281 -6.46875 2.65625 -7.1875 C 2.207031 -7.894531 1.984375 -8.675781 1.984375 -9.53125 C 1.984375 -10.40625 2.300781 -11.117188 2.9375 -11.671875 C 3.59375 -12.253906 4.453125 -12.546875 5.515625 -12.546875 C 6.109375 -12.546875 6.675781 -12.429688 7.21875 -12.203125 C 7.757812 -11.972656 8.1875 -11.671875 8.5 -11.296875 L 8.1875 -9.3125 L 8.015625 -9.3125 C 8.015625 -10.15625 7.785156 -10.816406 7.328125 -11.296875 C 6.867188 -11.773438 6.285156 -12.015625 5.578125 -12.015625 C 4.867188 -12.015625 4.296875 -11.78125 3.859375 -11.3125 C 3.421875 -10.84375 3.203125 -10.253906 3.203125 -9.546875 C 3.203125 -8.847656 3.414062 -8.1875 3.84375 -7.5625 C 4.28125 -6.945312 5.128906 -6.078125 6.390625 -4.953125 C 7.660156 -3.828125 8.585938 -3.019531 9.171875 -2.53125 C 9.410156 -3.070312 9.53125 -3.628906 9.53125 -4.203125 C 9.53125 -4.773438 9.40625 -5.3125 9.15625 -5.8125 C 8.90625 -6.320312 8.535156 -6.578125 8.046875 -6.578125 L 7.78125 -6.578125 L 7.78125 -6.765625 L 11.28125 -6.765625 L 11.28125 -6.578125 Z M 8.546875 -1.546875 C 5.554688 -4.015625 3.6875 -5.753906 2.9375 -6.765625 C 2.1875 -6.054688 1.8125 -5.132812 1.8125 -4 C 1.8125 -2.875 2.171875 -1.984375 2.890625 -1.328125 C 3.609375 -0.671875 4.613281 -0.34375 5.90625 -0.34375 C 6.976562 -0.34375 7.859375 -0.742188 8.546875 -1.546875 Z M 8.546875 -1.546875 "/></g></g></g><g fill="#e1ca6a" fill-opacity="1"><g transform="translate(135.552507, 122.123559)"><g><path d="M 7.328125 0.25 C 5.472656 0.238281 3.960938 -0.347656 2.796875 -1.515625 C 1.628906 -2.691406 1.046875 -4.238281 1.046875 -6.15625 C 1.046875 -8.070312 1.628906 -9.613281 2.796875 -10.78125 C 3.960938 -11.957031 5.503906 -12.546875 7.421875 -12.546875 C 8.992188 -12.546875 10.382812 -12.144531 11.59375 -11.34375 L 11.9375 -8.875 L 11.78125 -8.875 C 11.519531 -9.875 11 -10.644531 10.21875 -11.1875 C 9.4375 -11.738281 8.503906 -12.015625 7.421875 -12.015625 C 5.890625 -12.015625 4.664062 -11.476562 3.75 -10.40625 C 2.832031 -9.34375 2.375 -7.929688 2.375 -6.171875 C 2.375 -4.421875 2.828125 -3.007812 3.734375 -1.9375 C 4.640625 -0.863281 5.835938 -0.3125 7.328125 -0.28125 C 8.640625 -0.28125 9.734375 -0.640625 10.609375 -1.359375 C 11.554688 -2.128906 12.128906 -3.382812 12.328125 -5.125 L 12.46875 -5.125 L 12.265625 -2.375 C 11.191406 -0.625 9.546875 0.25 7.328125 0.25 Z M 7.328125 0.25 "/></g></g></g><g fill="#e1ca6a" fill-opacity="1"><g transform="translate(151.712125, 122.123559)"><g><path d="M 2.96875 -10.78125 C 4.132812 -11.957031 5.65625 -12.546875 7.53125 -12.546875 C 9.40625 -12.546875 10.925781 -11.957031 12.09375 -10.78125 C 13.269531 -9.601562 13.859375 -8.054688 13.859375 -6.140625 C 13.859375 -4.234375 13.269531 -2.691406 12.09375 -1.515625 C 10.925781 -0.335938 9.40625 0.25 7.53125 0.25 C 5.65625 0.25 4.132812 -0.335938 2.96875 -1.515625 C 1.8125 -2.691406 1.234375 -4.234375 1.234375 -6.140625 C 1.234375 -8.054688 1.8125 -9.601562 2.96875 -10.78125 Z M 3.9375 -1.890625 C 4.84375 -0.816406 6.039062 -0.28125 7.53125 -0.28125 C 9.03125 -0.28125 10.234375 -0.816406 11.140625 -1.890625 C 12.046875 -2.972656 12.5 -4.390625 12.5 -6.140625 C 12.5 -7.304688 12.296875 -8.332031 11.890625 -9.21875 C 11.484375 -10.113281 10.898438 -10.800781 10.140625 -11.28125 C 9.390625 -11.769531 8.519531 -12.015625 7.53125 -12.015625 C 6.039062 -12.015625 4.84375 -11.472656 3.9375 -10.390625 C 3.03125 -9.316406 2.578125 -7.898438 2.578125 -6.140625 C 2.578125 -4.390625 3.03125 -2.972656 3.9375 -1.890625 Z M 3.9375 -1.890625 "/></g></g></g><g fill="#e1ca6a" fill-opacity="1"><g transform="translate(169.241788, 122.123559)"><g><path d="M 13.65625 -12.125 C 13.363281 -12.125 13.113281 -12.019531 12.90625 -11.8125 C 12.695312 -11.601562 12.585938 -11.351562 12.578125 -11.0625 L 12.578125 -2 C 12.578125 -1.320312 12.617188 -0.675781 12.703125 -0.0625 L 12.734375 0.25 L 12.578125 0.25 L 3 -9.96875 L 3 -1.234375 C 3.007812 -0.816406 3.191406 -0.507812 3.546875 -0.3125 C 3.710938 -0.21875 3.890625 -0.171875 4.078125 -0.171875 L 4.40625 -0.171875 L 4.40625 0 L 0.796875 0 L 0.796875 -0.171875 L 1.125 -0.171875 C 1.414062 -0.171875 1.664062 -0.273438 1.875 -0.484375 C 2.082031 -0.691406 2.1875 -0.945312 2.1875 -1.25 L 2.1875 -10.359375 C 2.1875 -11.078125 2.148438 -11.71875 2.078125 -12.28125 L 2.03125 -12.5625 L 2.21875 -12.5625 L 11.78125 -2.328125 L 11.78125 -11.046875 C 11.769531 -11.347656 11.660156 -11.601562 11.453125 -11.8125 C 11.242188 -12.019531 10.992188 -12.125 10.703125 -12.125 L 10.359375 -12.125 L 10.359375 -12.296875 L 13.984375 -12.296875 L 13.984375 -12.125 Z M 13.65625 -12.125 "/></g></g></g><g fill="#e1ca6a" fill-opacity="1"><g transform="translate(186.824138, 122.123559)"><g><path d="M 1.078125 -0.71875 C 1.035156 -0.882812 1.015625 -1.203125 1.015625 -1.671875 C 1.015625 -2.140625 1.101562 -2.632812 1.28125 -3.15625 L 1.4375 -3.15625 C 1.425781 -3.03125 1.421875 -2.90625 1.421875 -2.78125 C 1.421875 -2.0625 1.632812 -1.460938 2.0625 -0.984375 C 2.5 -0.515625 3.078125 -0.28125 3.796875 -0.28125 C 4.535156 -0.28125 5.140625 -0.5 5.609375 -0.9375 C 6.085938 -1.382812 6.328125 -1.945312 6.328125 -2.625 C 6.328125 -3.300781 6.097656 -3.847656 5.640625 -4.265625 L 2.265625 -7.390625 C 1.628906 -7.972656 1.3125 -8.679688 1.3125 -9.515625 C 1.3125 -10.347656 1.585938 -11.0625 2.140625 -11.65625 C 2.703125 -12.25 3.457031 -12.546875 4.40625 -12.546875 C 4.851562 -12.546875 5.359375 -12.484375 5.921875 -12.359375 L 6.609375 -12.359375 L 6.609375 -10.203125 L 6.453125 -10.203125 C 6.453125 -10.753906 6.257812 -11.191406 5.875 -11.515625 C 5.488281 -11.847656 5 -12.015625 4.40625 -12.015625 C 3.8125 -12.015625 3.3125 -11.8125 2.90625 -11.40625 C 2.5 -11.007812 2.296875 -10.515625 2.296875 -9.921875 C 2.296875 -9.328125 2.53125 -8.8125 3 -8.375 L 6.46875 -5.1875 C 7.050781 -4.644531 7.34375 -3.90625 7.34375 -2.96875 C 7.34375 -2.03125 7.039062 -1.257812 6.4375 -0.65625 C 5.84375 -0.0507812 5.050781 0.25 4.0625 0.25 C 3.539062 0.25 2.988281 0.164062 2.40625 0 C 1.832031 -0.15625 1.390625 -0.394531 1.078125 -0.71875 Z M 1.078125 -0.71875 "/></g></g></g><g fill="#e1ca6a" fill-opacity="1"><g transform="translate(197.97778, 122.123559)"><g><path d="M 12.90625 -12.125 L 12.625 -12.125 C 12.382812 -12.125 12.171875 -12.039062 11.984375 -11.875 C 11.804688 -11.71875 11.710938 -11.523438 11.703125 -11.296875 L 11.703125 -4.34375 C 11.703125 -2.96875 11.265625 -1.859375 10.390625 -1.015625 C 9.523438 -0.171875 8.375 0.25 6.9375 0.25 C 5.5 0.25 4.332031 -0.164062 3.4375 -1 C 2.539062 -1.84375 2.09375 -2.953125 2.09375 -4.328125 L 2.09375 -11.234375 C 2.09375 -11.585938 1.941406 -11.847656 1.640625 -12.015625 C 1.492188 -12.085938 1.332031 -12.125 1.15625 -12.125 L 0.875 -12.125 L 0.875 -12.296875 L 4.4375 -12.296875 L 4.4375 -12.125 L 4.15625 -12.125 C 3.90625 -12.125 3.691406 -12.039062 3.515625 -11.875 C 3.335938 -11.71875 3.242188 -11.519531 3.234375 -11.28125 L 3.234375 -4.5625 C 3.234375 -3.289062 3.570312 -2.257812 4.25 -1.46875 C 4.9375 -0.6875 5.851562 -0.296875 7 -0.296875 C 8.15625 -0.296875 9.085938 -0.664062 9.796875 -1.40625 C 10.515625 -2.15625 10.875 -3.132812 10.875 -4.34375 L 10.875 -11.28125 C 10.863281 -11.519531 10.769531 -11.71875 10.59375 -11.875 C 10.414062 -12.039062 10.195312 -12.125 9.9375 -12.125 L 9.65625 -12.125 L 9.65625 -12.296875 L 12.90625 -12.296875 Z M 12.90625 -12.125 "/></g></g></g><g fill="#e1ca6a" fill-opacity="1"><g transform="translate(214.576491, 122.123559)"><g><path d="M 1.28125 -0.171875 C 1.582031 -0.171875 1.84375 -0.28125 2.0625 -0.5 C 2.28125 -0.71875 2.394531 -0.976562 2.40625 -1.28125 L 2.40625 -11.015625 C 2.394531 -11.316406 2.28125 -11.578125 2.0625 -11.796875 C 1.84375 -12.015625 1.582031 -12.125 1.28125 -12.125 L 1.046875 -12.125 L 1.046875 -12.296875 L 4.90625 -12.296875 L 4.90625 -12.125 L 4.671875 -12.125 C 4.253906 -12.125 3.929688 -11.941406 3.703125 -11.578125 C 3.597656 -11.398438 3.546875 -11.210938 3.546875 -11.015625 L 3.546875 -0.546875 L 6.0625 -0.546875 C 6.925781 -0.546875 7.585938 -0.738281 8.046875 -1.125 C 8.503906 -1.507812 8.882812 -2.082031 9.1875 -2.84375 L 9.359375 -2.84375 L 8.34375 0 L 1.046875 0 L 1.046875 -0.171875 Z M 1.28125 -0.171875 "/></g></g></g><g fill="#e1ca6a" fill-opacity="1"><g transform="translate(227.258268, 122.123559)"><g><path d="M 10.34375 -10.734375 C 10.34375 -11.015625 10.242188 -11.253906 10.046875 -11.453125 C 9.847656 -11.660156 9.613281 -11.769531 9.34375 -11.78125 L 6 -11.78125 L 6 -1.265625 C 6.019531 -0.960938 6.132812 -0.703125 6.34375 -0.484375 C 6.5625 -0.273438 6.820312 -0.171875 7.125 -0.171875 L 7.359375 -0.171875 L 7.359375 0 L 3.515625 0 L 3.515625 -0.171875 L 3.734375 -0.171875 C 4.046875 -0.171875 4.304688 -0.273438 4.515625 -0.484375 C 4.734375 -0.703125 4.847656 -0.957031 4.859375 -1.25 L 4.859375 -11.78125 L 1.53125 -11.78125 C 1.25 -11.769531 1.007812 -11.660156 0.8125 -11.453125 C 0.625 -11.253906 0.53125 -11.015625 0.53125 -10.734375 L 0.53125 -10.4375 L 0.34375 -10.421875 L 0.34375 -12.625 C 0.519531 -12.550781 0.828125 -12.476562 1.265625 -12.40625 C 1.703125 -12.34375 2.097656 -12.3125 2.453125 -12.3125 L 8.390625 -12.3125 C 8.960938 -12.3125 9.4375 -12.351562 9.8125 -12.4375 C 10.195312 -12.53125 10.429688 -12.59375 10.515625 -12.625 L 10.515625 -10.421875 L 10.34375 -10.4375 Z M 10.34375 -10.734375 "/></g></g></g><g fill="#e1ca6a" fill-opacity="1"><g transform="translate(240.923662, 122.123559)"><g><path d="M 12.578125 -0.171875 L 12.71875 -0.171875 L 12.71875 0 L 8.765625 0 L 8.765625 -0.171875 L 8.921875 -0.171875 C 9.160156 -0.171875 9.34375 -0.25 9.46875 -0.40625 C 9.59375 -0.570312 9.65625 -0.722656 9.65625 -0.859375 C 9.65625 -1.003906 9.632812 -1.144531 9.59375 -1.28125 L 8.46875 -4.265625 L 3.71875 -4.265625 L 2.546875 -1.265625 C 2.492188 -1.117188 2.46875 -0.976562 2.46875 -0.84375 C 2.46875 -0.71875 2.53125 -0.570312 2.65625 -0.40625 C 2.78125 -0.25 2.96875 -0.171875 3.21875 -0.171875 L 3.375 -0.171875 L 3.375 0 L -0.15625 0 L -0.15625 -0.171875 L 0 -0.171875 C 0.289062 -0.171875 0.578125 -0.265625 0.859375 -0.453125 C 1.140625 -0.640625 1.367188 -0.914062 1.546875 -1.28125 L 5.515625 -10.734375 C 5.941406 -11.679688 6.15625 -12.285156 6.15625 -12.546875 L 6.328125 -12.546875 L 11.03125 -1.28125 C 11.1875 -0.914062 11.40625 -0.640625 11.6875 -0.453125 C 11.96875 -0.265625 12.265625 -0.171875 12.578125 -0.171875 Z M 3.9375 -4.796875 L 8.25 -4.796875 L 6.140625 -10.4375 Z M 3.9375 -4.796875 "/></g></g></g><g fill="#e1ca6a" fill-opacity="1"><g transform="translate(256.240164, 122.123559)"><g><path d="M 13.65625 -12.125 C 13.363281 -12.125 13.113281 -12.019531 12.90625 -11.8125 C 12.695312 -11.601562 12.585938 -11.351562 12.578125 -11.0625 L 12.578125 -2 C 12.578125 -1.320312 12.617188 -0.675781 12.703125 -0.0625 L 12.734375 0.25 L 12.578125 0.25 L 3 -9.96875 L 3 -1.234375 C 3.007812 -0.816406 3.191406 -0.507812 3.546875 -0.3125 C 3.710938 -0.21875 3.890625 -0.171875 4.078125 -0.171875 L 4.40625 -0.171875 L 4.40625 0 L 0.796875 0 L 0.796875 -0.171875 L 1.125 -0.171875 C 1.414062 -0.171875 1.664062 -0.273438 1.875 -0.484375 C 2.082031 -0.691406 2.1875 -0.945312 2.1875 -1.25 L 2.1875 -10.359375 C 2.1875 -11.078125 2.148438 -11.71875 2.078125 -12.28125 L 2.03125 -12.5625 L 2.21875 -12.5625 L 11.78125 -2.328125 L 11.78125 -11.046875 C 11.769531 -11.347656 11.660156 -11.601562 11.453125 -11.8125 C 11.242188 -12.019531 10.992188 -12.125 10.703125 -12.125 L 10.359375 -12.125 L 10.359375 -12.296875 L 13.984375 -12.296875 L 13.984375 -12.125 Z M 13.65625 -12.125 "/></g></g></g><g fill="#e1ca6a" fill-opacity="1"><g transform="translate(273.822515, 122.123559)"><g><path d="M 7.328125 0.25 C 5.472656 0.238281 3.960938 -0.347656 2.796875 -1.515625 C 1.628906 -2.691406 1.046875 -4.238281 1.046875 -6.15625 C 1.046875 -8.070312 1.628906 -9.613281 2.796875 -10.78125 C 3.960938 -11.957031 5.503906 -12.546875 7.421875 -12.546875 C 8.992188 -12.546875 10.382812 -12.144531 11.59375 -11.34375 L 11.9375 -8.875 L 11.78125 -8.875 C 11.519531 -9.875 11 -10.644531 10.21875 -11.1875 C 9.4375 -11.738281 8.503906 -12.015625 7.421875 -12.015625 C 5.890625 -12.015625 4.664062 -11.476562 3.75 -10.40625 C 2.832031 -9.34375 2.375 -7.929688 2.375 -6.171875 C 2.375 -4.421875 2.828125 -3.007812 3.734375 -1.9375 C 4.640625 -0.863281 5.835938 -0.3125 7.328125 -0.28125 C 8.640625 -0.28125 9.734375 -0.640625 10.609375 -1.359375 C 11.554688 -2.128906 12.128906 -3.382812 12.328125 -5.125 L 12.46875 -5.125 L 12.265625 -2.375 C 11.191406 -0.625 9.546875 0.25 7.328125 0.25 Z M 7.328125 0.25 "/></g></g></g><g fill="#e1ca6a" fill-opacity="1"><g transform="translate(289.982127, 122.123559)"><g><path d="M 11.8125 -12.125 L 11.578125 -12.125 C 11.222656 -12.125 10.890625 -12.023438 10.578125 -11.828125 C 10.265625 -11.628906 10.003906 -11.382812 9.796875 -11.09375 L 6.34375 -5.484375 L 6.34375 -1.28125 C 6.34375 -0.976562 6.445312 -0.71875 6.65625 -0.5 C 6.875 -0.28125 7.144531 -0.171875 7.46875 -0.171875 L 7.671875 -0.171875 L 7.671875 0 L 3.84375 0 L 3.84375 -0.171875 L 4.078125 -0.171875 C 4.378906 -0.171875 4.632812 -0.273438 4.84375 -0.484375 C 5.0625 -0.703125 5.179688 -0.960938 5.203125 -1.265625 L 5.203125 -5.5 L 1.84375 -11.09375 C 1.664062 -11.375 1.414062 -11.613281 1.09375 -11.8125 C 0.769531 -12.019531 0.429688 -12.125 0.078125 -12.125 L -0.15625 -12.125 L -0.15625 -12.296875 L 4.15625 -12.296875 L 4.15625 -12.125 L 3.9375 -12.125 C 3.675781 -12.125 3.472656 -12.003906 3.328125 -11.765625 C 3.265625 -11.640625 3.234375 -11.515625 3.234375 -11.390625 C 3.234375 -11.265625 3.257812 -11.144531 3.3125 -11.03125 L 5.953125 -6.109375 L 8.765625 -11.046875 C 8.816406 -11.160156 8.84375 -11.273438 8.84375 -11.390625 C 8.84375 -11.515625 8.804688 -11.640625 8.734375 -11.765625 C 8.585938 -12.003906 8.382812 -12.125 8.125 -12.125 L 7.921875 -12.125 L 7.921875 -12.296875 L 11.8125 -12.296875 Z M 11.8125 -12.125 "/></g></g></g></svg>